# xmcd
# 
# Track frame offsets:
#     150
#     26684
#     52807
#     74254
#     95468
#     117883
#     144531
#     164241
#     188961
#     209719
#     231734
#     253580
#     281991
# 
# Disc length: 4506
# 
# Revision: 13
# Processed by: cddbd v1.5.2PL0 Copyright (c) Steve Scherf et al.
# Submitted via: fre:ac v1.0.17
# 
DISCID=d111980d
DTITLE=Santana - Supernatural
DYEAR=1999
DGENRE=Folk-Rock
TTITLE0=(Da Le) Yaleo
TTITLE1=Love of My Life
TTITLE2=Put Your Lights On
TTITLE3=Africa Bamba
TTITLE4=Smooth
TTITLE5=Do You Like the Way
TTITLE6=Maria Maria
TTITLE7=Migra
TTITLE8=Corazon Espinado
TTITLE9=Wishing It Was
TTITLE10=El Farol
TTITLE11=Primavera
TTITLE12=The Calling
EXTD=YEAR: 1999
EXTT0=
EXTT1=
EXTT2=
EXTT3=
EXTT4=
EXTT5=
EXTT6=
EXTT7=
EXTT8=
EXTT9=
EXTT10=
EXTT11=
EXTT12=
PLAYORDER=
